<?xml version="1.0" encoding="us-ascii" standalone="no"?><svg xmlns="http://www.w3.org/2000/svg" xmlns:xlink="http://www.w3.org/1999/xlink" contentStyleType="text/css" height="405px" preserveAspectRatio="none" style="width:646px;height:405px;" version="1.1" viewBox="0 0 646 405" width="646px" zoomAndPan="magnify"><defs/><g><!--class AbstractList--><g id="elem_AbstractList"><rect codeLine="150" fill="#EEEEEE" height="50.2969" id="AbstractList" rx="2" ry="2" style="stroke:#111111;stroke-width:0.5;" width="123" x="212.5" y="190"/><ellipse cx="227.5" cy="207.1484" fill="#A9DCDF" rx="11" ry="11" style="stroke:#181818;stroke-width:1.0;"/><path d="M229.5781,208.9609 L229.9688,209.9453 L229.5781,209.9453 C229.125,209.9453 229.0156,209.9609 228.8594,210.0703 C228.6094,210.2266 228.4531,210.5078 228.4531,210.8047 C228.4531,211.0703 228.5938,211.3203 228.8125,211.4766 C228.9531,211.6016 229.1563,211.6484 229.5781,211.6484 L231.9375,211.6484 C232.2969,211.6484 232.5156,211.6172 232.6563,211.5234 C232.9063,211.3828 233.0625,211.0859 233.0625,210.8047 C233.0625,210.5234 232.9219,210.2734 232.7031,210.1172 C232.5313,209.9766 232.375,209.9453 231.9063,209.9453 L228.5156,201.7422 L224.8438,201.7422 C224.3906,201.7422 224.2656,201.7578 224.1094,201.8516 C223.8594,202.0234 223.7031,202.3047 223.7031,202.5859 C223.7031,202.8672 223.8438,203.1172 224.0625,203.2891 C224.2344,203.3984 224.4063,203.4297 224.8438,203.4297 L225.9219,203.4297 L223.2813,209.9453 C222.8594,209.9453 222.7031,209.9609 222.5469,210.0703 C222.2969,210.2266 222.1406,210.5078 222.1406,210.8047 C222.1406,211.3672 222.5156,211.6484 223.2656,211.6484 L225.5313,211.6484 C225.8906,211.6484 226.1094,211.6172 226.2344,211.5234 C226.5,211.3828 226.6406,211.0859 226.6406,210.8047 C226.6406,210.5234 226.5156,210.2734 226.2969,210.1016 C226.125,209.9766 225.9844,209.9453 225.5313,209.9453 L225.1406,209.9453 L225.5313,208.9609 L229.5781,208.9609 Z M228.875,207.2578 L226.2031,207.2578 L227.5469,203.9922 L228.875,207.2578 Z " fill="#000000"/><text fill="#333333" font-family="sans-serif" font-size="14" font-style="italic" lengthAdjust="spacing" textLength="83" x="245.5" y="211.9951">AbstractList</text><line style="stroke:#111111;stroke-width:0.5;" x1="213.5" x2="334.5" y1="224.2969" y2="224.2969"/><line style="stroke:#111111;stroke-width:0.5;" x1="213.5" x2="334.5" y1="232.2969" y2="232.2969"/></g><!--class AbstractCollection--><g id="elem_AbstractCollection"><rect codeLine="151" fill="#EEEEEE" height="50.2969" id="AbstractCollection" rx="2" ry="2" style="stroke:#111111;stroke-width:0.5;" width="170" x="7" y="190"/><ellipse cx="22" cy="207.1484" fill="#A9DCDF" rx="11" ry="11" style="stroke:#181818;stroke-width:1.0;"/><path d="M24.0781,208.9609 L24.4688,209.9453 L24.0781,209.9453 C23.625,209.9453 23.5156,209.9609 23.3594,210.0703 C23.1094,210.2266 22.9531,210.5078 22.9531,210.8047 C22.9531,211.0703 23.0938,211.3203 23.3125,211.4766 C23.4531,211.6016 23.6563,211.6484 24.0781,211.6484 L26.4375,211.6484 C26.7969,211.6484 27.0156,211.6172 27.1563,211.5234 C27.4063,211.3828 27.5625,211.0859 27.5625,210.8047 C27.5625,210.5234 27.4219,210.2734 27.2031,210.1172 C27.0313,209.9766 26.875,209.9453 26.4063,209.9453 L23.0156,201.7422 L19.3438,201.7422 C18.8906,201.7422 18.7656,201.7578 18.6094,201.8516 C18.3594,202.0234 18.2031,202.3047 18.2031,202.5859 C18.2031,202.8672 18.3438,203.1172 18.5625,203.2891 C18.7344,203.3984 18.9063,203.4297 19.3438,203.4297 L20.4219,203.4297 L17.7813,209.9453 C17.3594,209.9453 17.2031,209.9609 17.0469,210.0703 C16.7969,210.2266 16.6406,210.5078 16.6406,210.8047 C16.6406,211.3672 17.0156,211.6484 17.7656,211.6484 L20.0313,211.6484 C20.3906,211.6484 20.6094,211.6172 20.7344,211.5234 C21,211.3828 21.1406,211.0859 21.1406,210.8047 C21.1406,210.5234 21.0156,210.2734 20.7969,210.1016 C20.625,209.9766 20.4844,209.9453 20.0313,209.9453 L19.6406,209.9453 L20.0313,208.9609 L24.0781,208.9609 Z M23.375,207.2578 L20.7031,207.2578 L22.0469,203.9922 L23.375,207.2578 Z " fill="#000000"/><text fill="#333333" font-family="sans-serif" font-size="14" font-style="italic" lengthAdjust="spacing" textLength="130" x="40" y="211.9951">AbstractCollection</text><line style="stroke:#111111;stroke-width:0.5;" x1="8" x2="176" y1="224.2969" y2="224.2969"/><line style="stroke:#111111;stroke-width:0.5;" x1="8" x2="176" y1="232.2969" y2="232.2969"/></g><!--class List--><g id="elem_List"><rect codeLine="152" fill="#EEEEEE" height="50.2969" id="List" rx="2" ry="2" style="stroke:#111111;stroke-width:0.5;" width="64" x="227" y="43.5"/><ellipse cx="242" cy="60.6484" fill="#B4A7E5" rx="11" ry="11" style="stroke:#181818;stroke-width:1.0;"/><path d="M242.9531,57.4297 L244.6719,57.4297 C245.0625,57.4297 245.25,57.3984 245.375,57.3203 C245.6406,57.1641 245.7813,56.8828 245.7813,56.5859 C245.7813,56.3203 245.6719,56.0547 245.4375,55.8828 C245.2656,55.7734 245.125,55.7422 244.6719,55.7422 L239.5313,55.7422 C239.0938,55.7422 238.9688,55.7578 238.8125,55.8516 C238.5625,56.0078 238.4063,56.3047 238.4063,56.5859 C238.4063,56.8672 238.5469,57.1172 238.7656,57.2891 C238.9219,57.3984 239.1094,57.4297 239.5313,57.4297 L241.25,57.4297 L241.25,63.9453 L239.5313,63.9453 C239.0938,63.9453 238.9688,63.9609 238.8125,64.0703 C238.5625,64.2266 238.4063,64.5078 238.4063,64.8047 C238.4063,65.0547 238.5469,65.3203 238.7656,65.4766 C238.9219,65.6016 239.125,65.6484 239.5313,65.6484 L244.6719,65.6484 C245.4219,65.6484 245.7813,65.3672 245.7813,64.8047 C245.7813,64.5234 245.6719,64.2734 245.4375,64.1016 C245.2656,63.9766 245.125,63.9453 244.6719,63.9453 L242.9531,63.9453 L242.9531,57.4297 Z " fill="#000000"/><text fill="#333333" font-family="sans-serif" font-size="14" font-style="italic" lengthAdjust="spacing" textLength="24" x="260" y="65.4951">List</text><line style="stroke:#111111;stroke-width:0.5;" x1="228" x2="290" y1="77.7969" y2="77.7969"/><line style="stroke:#111111;stroke-width:0.5;" x1="228" x2="290" y1="85.7969" y2="85.7969"/></g><!--class Collection--><g id="elem_Collection"><rect codeLine="153" fill="#EEEEEE" height="50.2969" id="Collection" rx="2" ry="2" style="stroke:#111111;stroke-width:0.5;" width="111" x="51.5" y="43.5"/><ellipse cx="66.5" cy="60.6484" fill="#B4A7E5" rx="11" ry="11" style="stroke:#181818;stroke-width:1.0;"/><path d="M67.4531,57.4297 L69.1719,57.4297 C69.5625,57.4297 69.75,57.3984 69.875,57.3203 C70.1406,57.1641 70.2813,56.8828 70.2813,56.5859 C70.2813,56.3203 70.1719,56.0547 69.9375,55.8828 C69.7656,55.7734 69.625,55.7422 69.1719,55.7422 L64.0313,55.7422 C63.5938,55.7422 63.4688,55.7578 63.3125,55.8516 C63.0625,56.0078 62.9063,56.3047 62.9063,56.5859 C62.9063,56.8672 63.0469,57.1172 63.2656,57.2891 C63.4219,57.3984 63.6094,57.4297 64.0313,57.4297 L65.75,57.4297 L65.75,63.9453 L64.0313,63.9453 C63.5938,63.9453 63.4688,63.9609 63.3125,64.0703 C63.0625,64.2266 62.9063,64.5078 62.9063,64.8047 C62.9063,65.0547 63.0469,65.3203 63.2656,65.4766 C63.4219,65.6016 63.625,65.6484 64.0313,65.6484 L69.1719,65.6484 C69.9219,65.6484 70.2813,65.3672 70.2813,64.8047 C70.2813,64.5234 70.1719,64.2734 69.9375,64.1016 C69.7656,63.9766 69.625,63.9453 69.1719,63.9453 L67.4531,63.9453 L67.4531,57.4297 Z " fill="#000000"/><text fill="#333333" font-family="sans-serif" font-size="14" font-style="italic" lengthAdjust="spacing" textLength="71" x="84.5" y="65.4951">Collection</text><line style="stroke:#111111;stroke-width:0.5;" x1="52.5" x2="161.5" y1="77.7969" y2="77.7969"/><line style="stroke:#111111;stroke-width:0.5;" x1="52.5" x2="161.5" y1="85.7969" y2="85.7969"/></g><!--class ArrayList--><g id="elem_ArrayList"><rect codeLine="162" fill="#EEEEEE" height="98.8906" id="ArrayList" rx="2" ry="2" style="stroke:#111111;stroke-width:0.5;" width="178" x="185" y="300"/><ellipse cx="233.75" cy="317.1484" fill="#ADD1B2" rx="11" ry="11" style="stroke:#181818;stroke-width:1.0;"/><path d="M236.0938,312.8203 C235.1563,312.3828 234.5625,312.2422 233.6875,312.2422 C231.0625,312.2422 229.0625,314.3203 229.0625,317.0391 L229.0625,318.1641 C229.0625,320.7422 231.1719,322.6328 234.0625,322.6328 C235.2813,322.6328 236.4375,322.3359 237.1875,321.7891 C237.7656,321.3828 238.0938,320.9297 238.0938,320.5391 C238.0938,320.0859 237.7031,319.6953 237.2344,319.6953 C237.0156,319.6953 236.8125,319.7734 236.625,319.9609 C236.1719,320.4453 236.1719,320.4453 235.9844,320.5391 C235.5625,320.8047 234.875,320.9297 234.1094,320.9297 C232.0625,320.9297 230.7656,319.8359 230.7656,318.1328 L230.7656,317.0391 C230.7656,315.2578 232.0156,313.9453 233.75,313.9453 C234.3281,313.9453 234.9375,314.1016 235.4063,314.3516 C235.8906,314.6328 236.0625,314.8516 236.1563,315.2578 C236.2188,315.6641 236.25,315.7891 236.3906,315.9141 C236.5313,316.0547 236.7656,316.1641 236.9844,316.1641 C237.25,316.1641 237.5156,316.0234 237.6875,315.8047 C237.7969,315.6484 237.8281,315.4609 237.8281,315.0391 L237.8281,313.6172 C237.8281,313.1797 237.8125,313.0547 237.7188,312.8984 C237.5625,312.6328 237.2813,312.4922 236.9844,312.4922 C236.6875,312.4922 236.4844,312.5859 236.2656,312.8984 L236.0938,312.8203 Z " fill="#000000"/><text fill="#333333" font-family="sans-serif" font-size="14" lengthAdjust="spacing" textLength="64" x="258.25" y="321.9951">ArrayList</text><line style="stroke:#111111;stroke-width:0.5;" x1="186" x2="362" y1="334.2969" y2="334.2969"/><text fill="#000000" font-family="sans-serif" font-size="14" lengthAdjust="spacing" textLength="158" x="195" y="355.292">Object[] elementData</text><line style="stroke:#111111;stroke-width:0.5;" x1="186" x2="362" y1="366.5938" y2="366.5938"/><text fill="#000000" font-family="sans-serif" font-size="14" lengthAdjust="spacing" textLength="38" x="195" y="387.5889">size()</text></g><!--class TimeUnit--><g id="elem_TimeUnit"><rect codeLine="167" fill="#EEEEEE" height="123.1875" id="TimeUnit" rx="2" ry="2" style="stroke:#111111;stroke-width:0.5;" width="105" x="326.5" y="7"/><ellipse cx="341.5" cy="24.1484" fill="#EB937F" rx="11" ry="11" style="stroke:#181818;stroke-width:1.0;"/><path d="M340.2969,25.0234 L341.75,25.0234 L341.75,25.1328 C341.75,25.5391 341.7813,25.6953 341.8594,25.8516 C342.0156,26.1016 342.2969,26.2578 342.5938,26.2578 C342.8438,26.2578 343.1094,26.1172 343.2656,25.8984 C343.3906,25.7422 343.4219,25.5859 343.4219,25.1328 L343.4219,23.2109 C343.4219,23.0547 343.4219,23.0078 343.4063,22.8516 C343.3438,22.3828 343.0313,22.0703 342.5781,22.0703 C342.3281,22.0703 342.0625,22.2109 341.8906,22.4297 C341.7813,22.6016 341.75,22.7578 341.75,23.2109 L341.75,23.3359 L340.2969,23.3359 L340.2969,20.9297 L344.2813,20.9297 L344.2813,21.7891 C344.2813,22.1953 344.3125,22.3672 344.3906,22.5234 C344.5625,22.7734 344.8438,22.9297 345.125,22.9297 C345.3906,22.9297 345.6563,22.7891 345.8281,22.5703 C345.9375,22.3984 345.9688,22.2578 345.9688,21.7891 L345.9688,19.2422 L338.3438,19.2422 C337.9063,19.2422 337.7813,19.2578 337.625,19.3516 C337.375,19.5078 337.2188,19.8047 337.2188,20.0859 C337.2188,20.3672 337.3594,20.6172 337.5781,20.7891 C337.7344,20.8984 337.9219,20.9297 338.3438,20.9297 L338.5938,20.9297 L338.5938,27.4453 L338.3438,27.4453 C337.9375,27.4453 337.7813,27.4609 337.625,27.5703 C337.375,27.7422 337.2188,28.0078 337.2188,28.3047 C337.2188,28.5703 337.3594,28.8203 337.5781,28.9766 C337.7188,29.1016 337.9531,29.1484 338.3438,29.1484 L346.3438,29.1484 L346.3438,26.5703 C346.3438,26.1328 346.3125,25.9922 346.2344,25.8359 C346.0625,25.5859 345.7813,25.4297 345.5,25.4297 C345.2344,25.4297 344.9688,25.5391 344.7969,25.7891 C344.6875,25.9453 344.6563,26.0859 344.6563,26.5703 L344.6563,27.4453 L340.2969,27.4453 L340.2969,25.0234 Z " fill="#000000"/><text fill="#333333" font-family="sans-serif" font-size="14" lengthAdjust="spacing" textLength="65" x="359.5" y="28.9951">TimeUnit</text><line style="stroke:#111111;stroke-width:0.5;" x1="327.5" x2="430.5" y1="41.2969" y2="41.2969"/><text fill="#000000" font-family="sans-serif" font-size="14" lengthAdjust="spacing" textLength="39" x="336.5" y="62.292">DAYS</text><text fill="#000000" font-family="sans-serif" font-size="14" lengthAdjust="spacing" textLength="49" x="336.5" y="86.5889">HOURS</text><text fill="#000000" font-family="sans-serif" font-size="14" lengthAdjust="spacing" textLength="62" x="336.5" y="110.8857">MINUTES</text><line style="stroke:#111111;stroke-width:0.5;" x1="327.5" x2="430.5" y1="122.1875" y2="122.1875"/></g><!--class SuppressWarnings--><g id="elem_SuppressWarnings"><rect codeLine="173" fill="#EEEEEE" height="50.2969" id="SuppressWarnings" rx="2" ry="2" style="stroke:#111111;stroke-width:0.5;" width="172" x="467" y="43.5"/><ellipse cx="482" cy="60.6484" fill="#E3664A" rx="11" ry="11" style="stroke:#181818;stroke-width:1.0;"/><path d="M482.9219,57.8984 C481.0156,58.0391 479.7031,59.2266 479.7031,60.8047 C479.7031,62.2109 480.9063,63.4297 482.3594,63.4297 C482.5156,63.4297 482.6563,63.4141 482.9219,63.3672 L482.9219,63.4297 L483.7188,63.4297 C484.3438,63.4297 484.6563,63.2109 484.6563,62.7266 C484.6563,62.4453 484.5313,62.2578 484.2656,62.1328 L484.2656,57.3516 C484.2656,55.4609 482.9531,54.1016 481.1094,54.1016 C478.9063,54.1016 477.2969,56.2266 477.2969,59.1641 L477.2969,62.0234 C477.2969,63.2734 477.5781,64.4922 478.0938,65.4141 C478.8125,66.6641 479.7344,67.2266 481.1406,67.2266 C482.75,67.2266 484.1406,66.5703 484.1406,65.7734 C484.1406,65.3828 483.8438,65.0703 483.4688,65.0703 C483.2656,65.0703 483.1719,65.1172 482.9375,65.3672 C482.6094,65.6953 481.9375,65.9141 481.1875,65.9141 C480.4375,65.9141 479.9063,65.6484 479.5,65.0547 C478.9219,64.2578 478.6406,63.2109 478.6406,61.9141 L478.6406,59.2578 C478.6406,57.0859 479.7031,55.4453 481.1406,55.4453 C482.1875,55.4453 482.9219,56.2266 482.9219,57.3516 L482.9219,57.8984 Z M482.9219,62.0078 C482.6875,62.0547 482.5938,62.0547 482.4844,62.0547 C481.6563,62.0547 481.0469,61.5234 481.0469,60.8203 C481.0469,59.9922 481.7969,59.3828 482.9219,59.2734 L482.9219,62.0078 Z " fill="#000000"/><text fill="#333333" font-family="sans-serif" font-size="14" lengthAdjust="spacing" textLength="132" x="500" y="65.4951">SuppressWarnings</text><line style="stroke:#111111;stroke-width:0.5;" x1="468" x2="638" y1="77.7969" y2="77.7969"/><line style="stroke:#111111;stroke-width:0.5;" x1="468" x2="638" y1="85.7969" y2="85.7969"/></g><!--reverse link List to AbstractList--><g id="link_List_AbstractList"><path codeLine="155" d="M263.61,113.907 C266.202,138.875 269.337,169.08 271.481,189.735 " fill="none" id="List-backto-AbstractList" style="stroke:#333333;stroke-width:1.0;"/><polygon fill="none" points="256.613,114.302,261.511,93.686,270.538,112.856,256.613,114.302" style="stroke:#333333;stroke-width:1.0;"/></g><!--reverse link Collection to AbstractCollection--><g id="link_Collection_AbstractCollection"><path codeLine="156" d="M102.3902,113.907 C99.7984,138.875 96.663,169.08 94.5189,189.735 " fill="none" id="Collection-backto-AbstractCollection" style="stroke:#333333;stroke-width:1.0;"/><polygon fill="none" points="95.4616,112.856,104.4893,93.686,109.387,114.302,95.4616,112.856" style="stroke:#333333;stroke-width:1.0;"/></g><!--reverse link Collection to List--><g id="link_Collection_List"><path codeLine="158" d="M182.656,68.5 C197.425,68.5 212.195,68.5 226.964,68.5 " fill="none" id="Collection-backto-List" style="stroke:#333333;stroke-width:1.0;"/><polygon fill="none" points="182.516,75.5,162.516,68.5,182.516,61.5,182.516,75.5" style="stroke:#333333;stroke-width:1.0;"/></g><!--reverse link AbstractCollection to AbstractList--><g id="link_AbstractCollection_AbstractList"><path codeLine="159" d="M197.345,215 C202.375,215 207.406,215 212.437,215 " fill="none" id="AbstractCollection-backto-AbstractList" style="stroke:#333333;stroke-width:1.0;"/><polygon fill="none" points="197.313,222,177.312,215,197.312,208,197.313,222" style="stroke:#333333;stroke-width:1.0;"/></g><!--reverse link AbstractList to ArrayList--><g id="link_AbstractList_ArrayList"><path codeLine="160" d="M274,260.671 C274,273.292 274,287.085 274,299.9231 " fill="none" id="AbstractList-backto-ArrayList" style="stroke:#333333;stroke-width:1.0;"/><polygon fill="none" points="267,260.303,274,240.303,281,260.303,267,260.303" style="stroke:#333333;stroke-width:1.0;"/></g><!--SRC=[ZPTDRzCm683l_XL178333jCuSkddLgcq8sar8OIGcxmjPgbT76TR6Vntx3XEqislqqcJ5ZzFKiTndtPlCjWo3j7m-iTeEL_6qTl9P4BUrAFJvMBbng-khfhnuJ8UJs97BYyl6pA8u-LTznJzKzmpVg2IxgDdGcvfbZ6-YpwIM9Gy6md9GUgZv2VDnACXMveNG8OqlTz9g-H2HafINkYh05Ta8ALujCETroFaNRI29qN885NiWQdZL71bjVP66ZXcT2zuXZb2-ibEJy1Ff69RclhXqDm8bVuPZN9Q50WHfN-6UY07VIU28sUA_K5mRAuZFIX5xcLZgkY65k254wwmTPsot7_ELEGP-5TpgZU5_wGPLo3rSlhf7FHZy2_CGcI00EK7oyqlG1xRhTw4T0S8qmyyPGVA5SxD0_BIBoMK_kl6UZAKxv35JE1t2Jo5eNWAyh7UuzYgE-TQlxqEGMFEjlgNXwSImnQa-SDlARs6657OEK9YovuyidrEaIcj2qYnhQlhC1HIhqdH1i8EMBNRj9UH27b2ujJ40gTrC531HGCLgd04g8u7Jjk019mw8W6Z2WdANKnGmGO5nIOgEAp2WcCJ5vGsWK4D6naKcz04eCAX3GwAw-W4U1EUi6CUBcfK0K9f4o7Kw8IerwbZrEjLGUgrN9HwnIPCk6dY5A8gT6uLAPpNeKA5EbOeDy5glWHre_NYcv7xwlOgMW5FHmkbLRHGwgA52KsqCC56AqXlW9hjWZicR2ZjX0rtNDXmmuODuqtOCA4E6uQhiA7GXWt5LTWmEai5Tma9Ef8zcFqTTdJ7KWLPs2etEKjnfIajPjIbnN1LMXm6xg4kBORxbgbRsg1JbHOpR6ansfOMCxgbxNDSQViyMzhpB94TUyscoNrYs-IppPuQs8O7Q61_97fdWb370mpES4PdE9CpdDaPpYBWsCyTZA-O2cmczw63yN-a-g6RGl_3dQeeDJsE1lNXd1MgPMwqBIvXxhqULMfxs768GT6dlnSNfzTjbLFOFVNKiI_osglOoRMx1_NLfQJ7Yf7w7jr0z5ntuzlt27BOwuy9KtjIi3_m_eDP8U3bFbgnFQmvC_fuy3KXDyjrd93FiyLwDKcCHJaNUlUP-IJbuI2XAEwev8plYly0]--></g></svg>